<svg xmlns="http://www.w3.org/2000/svg" width="485.67" height="199.58" viewBox="0 0 128.5 52.81">
    <path d="M27.72 51.14c-.1 0-.22 0-.32-.02A20.94 20.94 0 0 1 9.72 30.54c0-10.2 7.58-19.04 17.64-20.58a2.11 2.11 0 0 1 .64 4.17 16.7 16.7 0 0 0-14.06 16.4c0 8.14 6.06 15.2 14.09 16.41a2.11 2.11 0 0 1-.31 4.2m-18.24-2.9c.95-.69 1.16-2 .48-2.95a25.13 25.13 0 0 1-4.74-14.75A25.34 25.34 0 0 1 43.9 9.04a2.11 2.11 0 1 0 2.23-3.59A29.46 29.46 0 0 0 30.53 1a29.57 29.57 0 0 0-24 46.75 2.1 2.1 0 0 0 1.72.88c.43 0 .86-.13 1.23-.4m21.7-18.01a2.11 2.11 0 0 0-2.1-2.11H26.4a2.11 2.11 0 1 0 0 4.22h2.68a2.11 2.11 0 0 0 2.1-2.11m-1.21 10.71a2.11 2.11 0 0 0-1.5-2.57 8.1 8.1 0 0 1-6.04-7.83 8.1 8.1 0 0 1 6.04-7.82 2.11 2.11 0 0 0-1.08-4.08 12.32 12.32 0 0 0-9.18 11.9 12.32 12.32 0 0 0 9.18 11.9 2.11 2.11 0 0 0 2.58-1.5m4.66 1.5a12.32 12.32 0 0 0 9.17-11.9 12.32 12.32 0 0 0-9.17-11.9 2.11 2.11 0 0 0-1.08 4.08 8.1 8.1 0 0 1 6.03 7.82 8.1 8.1 0 0 1-6.03 7.82 2.11 2.11 0 1 0 1.08 4.09" fill="#d6084f"/>
    <path d="M52.87 41.47a1.45 1.45 0 0 1-.38-1.05v-3.08c0-.43.13-.77.38-1.03.26-.26.6-.4 1.03-.4.43 0 .77.14 1.03.4.26.25.39.6.39 1.03v.15c0 .05-.03.08-.09.08l-.43.02c-.05 0-.08-.02-.08-.08v-.2a.88.88 0 0 0-.23-.64.77.77 0 0 0-.6-.24.78.78 0 0 0-.59.24.88.88 0 0 0-.22.63v3.17c0 .26.07.47.22.63.16.16.35.24.6.24s.45-.08.6-.24a.88.88 0 0 0 .22-.63v-.2c0-.06.03-.09.08-.09l.43.03c.06 0 .09.02.09.08v.13c0 .44-.13.79-.4 1.05s-.6.39-1.02.39c-.43 0-.77-.13-1.03-.4M58 37.65c.04.03.05.06.04.11l-.1.43c0 .05-.04.07-.1.05a.56.56 0 0 0-.25-.05.46.46 0 0 0-.1.01c-.2.01-.36.12-.49.31-.12.2-.19.44-.19.72v2.49c0 .05-.02.08-.08.08h-.42c-.06 0-.09-.03-.09-.08v-4.03c0-.06.03-.09.09-.09h.42c.06 0 .08.03.08.09v.5c0 .01 0 .02.02.02s.01 0 .02-.02c.16-.42.43-.63.79-.63a.67.67 0 0 1 .36.1m3.16 2.27h-1.9c-.02 0-.03 0-.03.03v.6c0 .24.07.43.2.57.13.15.3.22.5.22a.67.67 0 0 0 .46-.16.76.76 0 0 0 .25-.42c.01-.05.04-.07.09-.07l.41.01a.08.08 0 0 1 .06.03c.02.02.02.04.02.07a1.2 1.2 0 0 1-.4.77 1.3 1.3 0 0 1-.88.29c-.4 0-.7-.12-.94-.35a1.24 1.24 0 0 1-.36-.92v-1.8c0-.37.12-.67.36-.91s.55-.35.94-.35c.4 0 .71.11.95.35.23.23.35.54.35.92v1.03c0 .06-.03.09-.08.09m-1.73-1.66a.84.84 0 0 0-.2.58v.55c0 .03.02.04.04.04h1.36c.02 0 .03-.01.03-.04v-.55a.83.83 0 0 0-.2-.58.67.67 0 0 0-.52-.22.65.65 0 0 0-.51.22m.14-1.24.01-.07.52-.9c.03-.05.06-.07.1-.07h.34c.03 0 .05.01.06.03l-.01.07-.58.9c-.03.05-.06.07-.1.07h-.27a.1.1 0 0 1-.07-.03m4.77.88c.23.26.35.6.35 1.01v2.8c0 .05-.03.08-.08.08h-.43c-.05 0-.08-.03-.08-.08v-.25l-.01-.02-.03.01c-.2.27-.51.4-.92.4-.3 0-.57-.08-.8-.25-.22-.18-.33-.49-.33-.93 0-.47.14-.81.4-1.03.28-.22.63-.33 1.08-.33h.58c.02 0 .03-.01.03-.03v-.33c0-.27-.06-.5-.19-.66a.61.61 0 0 0-.51-.25.6.6 0 0 0-.43.17.68.68 0 0 0-.21.42c0 .06-.03.08-.09.08h-.46c-.03 0-.05-.01-.06-.03a.06.06 0 0 1-.02-.06c.03-.32.16-.59.4-.79.24-.2.53-.3.88-.3.39 0 .7.12.93.37m-.49 3.22a.77.77 0 0 0 .25-.6v-.7c0-.03 0-.04-.03-.04h-.6a.9.9 0 0 0-.62.21c-.16.15-.23.35-.23.63 0 .24.06.43.17.54a.63.63 0 0 0 .47.18.86.86 0 0 0 .6-.22m3.17-3.09h-.63c-.02 0-.03.01-.03.04v2.54c0 .25.04.43.13.52.09.1.22.14.4.14h.1c.05 0 .08.03.08.08v.36c0 .05-.03.08-.08.08h-.21c-.33 0-.57-.07-.74-.21-.17-.14-.26-.4-.26-.8v-2.71c0-.03 0-.04-.03-.04h-.32c-.06 0-.09-.02-.09-.08v-.27c0-.06.03-.09.09-.09h.32c.02 0 .03 0 .03-.03v-.93c0-.05.03-.08.09-.08h.41c.06 0 .09.03.09.08v.93c0 .02 0 .03.03.03h.63c.05 0 .08.03.08.09v.27c0 .06-.03.08-.08.08m3.27 1.89h-1.9c-.02 0-.03 0-.03.03v.6c0 .24.07.43.2.57.13.15.3.22.5.22a.67.67 0 0 0 .46-.16.76.76 0 0 0 .25-.42c.01-.05.04-.07.09-.07l.41.01a.08.08 0 0 1 .06.03c.02.02.02.04.02.07a1.2 1.2 0 0 1-.4.77 1.3 1.3 0 0 1-.88.29c-.4 0-.7-.12-.94-.35a1.24 1.24 0 0 1-.36-.92v-1.8c0-.37.12-.67.36-.91s.55-.35.94-.35c.4 0 .71.11.95.35s.35.54.35.92v1.03c0 .06-.03.09-.08.09m-1.73-1.66a.84.84 0 0 0-.2.58v.55c0 .03.01.04.04.04h1.36c.02 0 .03-.01.03-.04v-.55a.82.82 0 0 0-.2-.58.67.67 0 0 0-.52-.22.65.65 0 0 0-.51.22m4.7-.67h.42c.05 0 .08.03.08.09v4.03c0 .05-.03.08-.08.08h-.43c-.05 0-.08-.03-.08-.08v-.28l-.01-.03c-.01 0-.02 0-.03.02-.17.29-.45.43-.83.43-.33 0-.6-.1-.8-.3-.2-.2-.29-.51-.29-.92v-2.95c0-.06.03-.09.08-.09h.43c.05 0 .08.03.08.09v2.82a1 1 0 0 0 .17.62c.11.15.28.22.5.22.21 0 .39-.09.51-.25a1 1 0 0 0 .19-.65v-2.76c0-.06.03-.09.08-.09m3.25.05c.04.03.05.06.04.11l-.1.43c0 .05-.03.07-.1.05a.56.56 0 0 0-.24-.05.46.46 0 0 0-.1.01c-.2.01-.37.12-.5.31-.12.2-.18.44-.18.72v2.49c0 .05-.03.08-.08.08h-.43c-.05 0-.08-.03-.08-.08v-4.03c0-.06.03-.09.08-.09h.43c.05 0 .08.03.08.09v.5l.01.02c.01 0 .02 0 .03-.02.16-.42.42-.63.79-.63a.67.67 0 0 1 .35.1m4.34-1.67h.42c.05 0 .08.03.08.09v5.64c0 .05-.03.08-.08.08h-.42c-.06 0-.09-.03-.09-.08v-.18l-.01-.03h-.03a1 1 0 0 1-.8.36c-.35 0-.63-.12-.84-.36a1.32 1.32 0 0 1-.32-.91v-1.8c0-.38.1-.69.32-.92.2-.23.5-.34.84-.34a1 1 0 0 1 .8.35c.01.01.02.02.03.01l.01-.02v-1.8c0-.06.03-.09.09-.09m-.28 5.14a.83.83 0 0 0 .2-.56v-1.72a.84.84 0 0 0-.2-.58.64.64 0 0 0-.5-.22.67.67 0 0 0-.52.22.81.81 0 0 0-.2.58v1.71c0 .24.06.43.2.57.13.15.3.22.52.22a.64.64 0 0 0 .5-.22m4.2-1.2H82.9c-.03 0-.04 0-.04.03v.6c0 .24.07.43.2.57.13.15.3.22.5.22a.67.67 0 0 0 .46-.16.76.76 0 0 0 .24-.42c.02-.05.05-.07.1-.07l.41.01a.08.08 0 0 1 .06.03c.02.02.02.04.02.07-.05.32-.18.58-.4.77-.23.2-.52.29-.88.29-.4 0-.71-.12-.94-.35a1.23 1.23 0 0 1-.36-.92v-1.8c0-.37.12-.67.36-.91.23-.23.54-.35.94-.35.4 0 .71.11.95.35s.35.54.35.92v1.03c0 .06-.03.09-.08.09m-1.73-1.66a.84.84 0 0 0-.2.58v.55c0 .03.01.04.03.04h1.36c.03 0 .04-.01.04-.04v-.55a.83.83 0 0 0-.2-.58.67.67 0 0 0-.52-.22.65.65 0 0 0-.51.22m5.1 3.46-1.03-4.04v-.03c0-.04.02-.06.07-.06h.48c.05 0 .08.03.1.08l.7 3.14.02.03.02-.03.7-3.14c.02-.05.05-.08.1-.08l.48.01c.02 0 .05.01.06.03.01.01.02.03 0 .06l-1.02 4.03c0 .05-.03.07-.09.07h-.5c-.05 0-.08-.02-.09-.07m2.7-.21a1.24 1.24 0 0 1-.35-.92v-1.8c0-.37.12-.68.36-.92.23-.23.55-.35.94-.35.4 0 .72.12.96.35s.35.55.35.92v1.79c0 .38-.12.69-.35.92a1.3 1.3 0 0 1-.96.35c-.4 0-.71-.12-.95-.35m1.47-.4a.8.8 0 0 0 .2-.56v-1.71a.81.81 0 0 0-.2-.58.67.67 0 0 0-.52-.22.66.66 0 0 0-.51.22.83.83 0 0 0-.2.58v1.7c0 .24.06.44.2.58a.67.67 0 0 0 .51.22.68.68 0 0 0 .52-.22m1.94.42a.98.98 0 0 1-.35-.79v-.05c0-.06.03-.09.09-.09h.4c.05 0 .08.03.08.09v.05c0 .17.06.32.2.44.12.13.3.19.5.19a.65.65 0 0 0 .48-.19.63.63 0 0 0 .19-.46.56.56 0 0 0-.12-.36.89.89 0 0 0-.27-.23 6.34 6.34 0 0 0-.46-.22 3.8 3.8 0 0 1-.53-.26 1.15 1.15 0 0 1-.37-.36c-.1-.16-.15-.36-.15-.6 0-.36.1-.64.33-.84.21-.2.5-.3.88-.3s.67.1.9.3c.22.22.33.5.33.84v.03c0 .05-.03.08-.09.08h-.38c-.05 0-.08-.03-.08-.08v-.05a.62.62 0 0 0-.19-.47.67.67 0 0 0-.48-.18.63.63 0 0 0-.48.19.64.64 0 0 0-.18.46c0 .13.04.24.11.34.07.09.16.16.26.22l.44.21c.23.1.42.2.56.28.15.1.28.22.4.38.1.16.16.36.16.6 0 .34-.12.61-.34.82-.23.2-.54.3-.92.3-.39 0-.7-.1-.92-.3" fill="#367591"/>
    <path d="M99.03 41.47a1.36 1.36 0 0 1-.37-.99v-.2c0-.05.03-.07.08-.07h.56c.05 0 .08.02.08.07v.16c0 .24.06.43.18.57a.56.56 0 0 0 .45.2.58.58 0 0 0 .45-.2.77.77 0 0 0 .18-.53.78.78 0 0 0-.1-.39 1.14 1.14 0 0 0-.25-.3 9.6 9.6 0 0 0-.5-.4 7.65 7.65 0 0 1-.62-.49 1.85 1.85 0 0 1-.37-.5 1.44 1.44 0 0 1-.15-.68c0-.41.12-.74.36-.98.25-.24.57-.37.96-.37.4 0 .73.13.98.4s.37.6.37 1.02v.2c0 .04-.02.07-.07.07h-.57c-.05 0-.08-.03-.08-.08v-.2a.83.83 0 0 0-.17-.56.57.57 0 0 0-.46-.21.56.56 0 0 0-.44.19.76.76 0 0 0-.17.52.8.8 0 0 0 .17.52c.12.14.33.32.65.56l.7.56c.15.14.27.3.36.47.08.17.12.37.12.6 0 .44-.12.78-.37 1.04a1.3 1.3 0 0 1-.98.38c-.4 0-.73-.12-.98-.38m3.33 0c-.25-.26-.38-.6-.38-1.02v-2.67c0-.42.13-.76.38-1.02.26-.26.6-.39 1.01-.39.43 0 .77.13 1.03.4.25.25.38.59.38 1.01v2.67c0 .43-.13.76-.38 1.02-.26.26-.6.38-1.02.38-.42 0-.76-.13-1.02-.38m1.5-.46a.76.76 0 0 0 .19-.53v-2.74a.76.76 0 0 0-.19-.53.63.63 0 0 0-.49-.2.61.61 0 0 0-.47.2.77.77 0 0 0-.18.53v2.74c0 .22.06.4.18.54s.28.2.47.2a.63.63 0 0 0 .5-.2m1.74.7v-5.2c0-.06.02-.08.07-.08h.59c.05 0 .07.02.07.07v4.62c0 .02.01.03.03.03h1.72c.05 0 .07.02.07.07v.49c0 .04-.02.07-.07.07h-2.4c-.06 0-.08-.02-.08-.08m3.44-.27a1.57 1.57 0 0 1-.38-1.1V36.5c0-.05.02-.07.07-.07h.59c.05 0 .07.02.07.07v3.9c0 .24.06.44.18.59a.6.6 0 0 0 .47.22.58.58 0 0 0 .48-.22.89.89 0 0 0 .18-.59v-3.9c0-.05.03-.07.08-.07h.58c.05 0 .07.02.07.07v3.83c0 .45-.12.82-.38 1.1-.25.27-.59.41-1 .41a1.3 1.3 0 0 1-1.01-.41M115 36.5v.5c0 .05-.03.08-.08.08h-1c-.02 0-.03.01-.03.03v4.61c0 .06-.03.08-.08.08h-.58c-.05 0-.08-.02-.08-.08V37.1c0-.02 0-.03-.03-.03h-.95c-.05 0-.07-.03-.07-.08v-.48c0-.05.02-.07.07-.07h2.75c.05 0 .08.02.08.07m.68 5.2v-5.2c0-.05.03-.07.08-.07h.58c.05 0 .08.02.08.07v5.2c0 .06-.03.08-.08.08h-.58c-.05 0-.08-.02-.08-.07m1.95-.25c-.26-.26-.39-.6-.39-1.02v-2.67a1.33 1.33 0 0 1 1.39-1.41 1.36 1.36 0 0 1 1.42 1.41v2.67a1.33 1.33 0 0 1-1.41 1.4c-.42 0-.76-.13-1.01-.38m1.5-.46a.76.76 0 0 0 .18-.53v-2.74a.76.76 0 0 0-.18-.53.63.63 0 0 0-.5-.2.61.61 0 0 0-.47.2.77.77 0 0 0-.18.53v2.74c0 .22.06.4.18.54s.28.2.48.2a.63.63 0 0 0 .49-.2m3.98-4.58h.57c.05 0 .07.02.07.07v5.2c0 .06-.02.08-.07.08h-.66c-.04 0-.07-.02-.08-.06l-1.3-3.5h-.03l-.01.01v3.48c0 .05-.02.07-.07.07h-.58c-.05 0-.08-.02-.08-.07v-5.2c0-.06.03-.08.08-.08h.65c.04 0 .07.02.08.06L123 40s.01.02.02.01c.01 0 .02 0 .02-.02V36.5c0-.05.02-.07.08-.07m1.77 5.03a1.35 1.35 0 0 1-.37-.99v-.2c0-.05.02-.07.07-.07h.57c.05 0 .07.02.07.07v.16c0 .24.06.43.18.57a.56.56 0 0 0 .45.2.58.58 0 0 0 .46-.2.77.77 0 0 0 .18-.53.78.78 0 0 0-.1-.39 1.14 1.14 0 0 0-.25-.3 9.6 9.6 0 0 0-.51-.4 7.65 7.65 0 0 1-.61-.49 1.85 1.85 0 0 1-.38-.5 1.44 1.44 0 0 1-.15-.68c0-.41.12-.74.37-.98.24-.24.56-.37.95-.37.41 0 .74.13.99.4.24.25.37.6.37 1.02v.2c0 .04-.03.07-.08.07h-.57c-.05 0-.07-.03-.07-.08v-.2a.83.83 0 0 0-.18-.56.57.57 0 0 0-.46-.21.56.56 0 0 0-.43.19.76.76 0 0 0-.17.52.8.8 0 0 0 .17.52c.1.14.33.32.65.56.3.23.53.42.69.56a1.37 1.37 0 0 1 .49 1.08c0 .43-.13.77-.38 1.03-.25.25-.58.38-.98.38s-.73-.12-.97-.38m-70.14 4.15h.57c.05 0 .08.02.08.07v5.2c0 .06-.03.08-.08.08h-.65c-.05 0-.07-.02-.09-.06l-1.3-3.5h-.02l-.02.01v3.48c0 .05-.02.07-.07.07h-.58c-.05 0-.08-.02-.08-.07v-5.2c0-.06.03-.08.08-.08h.65c.04 0 .07.02.09.06l1.3 3.5c0 .01.02.02.03.01l.01-.02v-3.48c0-.05.03-.07.08-.07m1.92 5a1.57 1.57 0 0 1-.38-1.1v-3.83c0-.05.03-.07.08-.07h.58c.05 0 .08.02.08.07v3.9c0 .24.06.44.18.59.12.14.27.22.47.22a.58.58 0 0 0 .48-.22.9.9 0 0 0 .18-.59v-3.9c0-.05.02-.07.07-.07h.58c.05 0 .08.02.08.07v3.83c0 .45-.13.82-.38 1.1-.26.27-.6.41-1.01.41a1.3 1.3 0 0 1-1-.41m5.76-5H63c.05 0 .08.02.08.07v5.2c0 .06-.03.08-.08.08h-.58c-.05 0-.08-.02-.08-.07v-3.8l-.01-.02-.03.01-.73 1.37c-.02.04-.04.06-.07.06-.03 0-.05-.02-.07-.06l-.73-1.36-.02-.02-.01.03v3.78c0 .06-.03.08-.08.08h-.58c-.05 0-.08-.02-.08-.08v-5.2c0-.05.03-.07.08-.07h.58c.03 0 .06.01.1.05l.8 1.44h.04l.8-1.44a.1.1 0 0 1 .09-.05m4.05.63h-1.72c-.02 0-.03.01-.03.03v1.66c0 .02.01.03.03.03h1.06c.05 0 .07.03.07.08v.48c0 .05-.02.08-.07.08h-1.06c-.02 0-.03 0-.03.03v1.67c0 .02.01.03.03.03h1.72c.05 0 .08.02.08.07v.49c0 .05-.03.07-.08.07h-2.4c-.06 0-.08-.02-.08-.07v-5.2c0-.06.02-.08.07-.08h2.41c.05 0 .08.02.08.07v.48c0 .06-.03.08-.08.08M64.9 45.1v-.06l.48-.83a.11.11 0 0 1 .1-.05h.46c.03 0 .05 0 .06.02.01.02 0 .04 0 .07l-.57.83c-.02.03-.05.05-.1.05h-.37c-.03 0-.05-.01-.06-.03m4.43 5.81-.7-2.28-.03-.02h-.54c-.02 0-.03 0-.03.03v2.26c0 .05-.02.07-.08.07h-.58c-.05 0-.07-.02-.07-.07v-5.2c0-.06.02-.08.07-.08h1.37c.26 0 .5.06.7.19.19.13.34.3.45.54.11.23.17.5.17.79 0 .32-.07.6-.2.84-.13.23-.31.4-.54.51-.02.02-.02.03-.02.05l.78 2.35v.03c0 .03-.01.05-.06.05h-.6c-.04 0-.07-.02-.09-.06m-1.3-4.63V48c0 .02.01.03.03.03h.57c.2 0 .37-.08.5-.24a1 1 0 0 0 .2-.64c0-.28-.07-.5-.2-.66a.61.61 0 0 0-.5-.24h-.57c-.02 0-.03.01-.03.03m2.72 4.62v-5.2c0-.06.02-.08.07-.08h.58c.06 0 .08.02.08.07v5.2c0 .06-.02.08-.08.08h-.58c-.05 0-.07-.02-.07-.07m3.89-4.95c.25.27.38.62.38 1.04v2.6c0 .36-.1.66-.27.9-.17.25-.4.41-.7.49l-.02.04v.71c0 .05-.03.08-.08.08h-.59c-.05 0-.07-.03-.07-.08v-.71c0-.02-.01-.03-.03-.04a1.22 1.22 0 0 1-.7-.49 1.52 1.52 0 0 1-.25-.9V47c0-.42.12-.77.37-1.04.25-.26.58-.4.98-.4s.73.14.98.4m-.36.97a.78.78 0 0 0-.17-.53.56.56 0 0 0-.45-.2.56.56 0 0 0-.45.2.78.78 0 0 0-.17.53v2.75c0 .22.06.4.17.53a.56.56 0 0 0 .45.2.56.56 0 0 0 .45-.2.78.78 0 0 0 .17-.53zm1.9 3.7a1.57 1.57 0 0 1-.38-1.1V45.7c0-.05.03-.07.08-.07h.58c.05 0 .08.02.08.07v3.9c0 .24.06.44.18.59a.6.6 0 0 0 .47.22.58.58 0 0 0 .48-.22.9.9 0 0 0 .18-.59v-3.9c0-.05.02-.07.07-.07h.59c.04 0 .07.02.07.07v3.83c0 .45-.13.82-.38 1.1-.26.27-.6.41-1.01.41a1.3 1.3 0 0 1-1-.41m5.69-4.37h-1.72c-.02 0-.03.01-.03.03v1.66c0 .02 0 .03.03.03h1.05c.05 0 .08.03.08.08v.48c0 .05-.03.08-.08.08h-1.05c-.02 0-.03 0-.03.03v1.67c0 .02 0 .03.03.03h1.72c.05 0 .07.02.07.07v.49c0 .05-.02.07-.07.07h-2.41c-.05 0-.08-.02-.08-.07v-5.2c0-.06.03-.08.08-.08h2.4c.06 0 .09.02.09.07v.48c0 .06-.03.08-.08.08m.99 4.4a1.35 1.35 0 0 1-.37-.98v-.2c0-.06.02-.08.08-.08h.56c.05 0 .08.02.08.07v.17c0 .23.06.42.17.56.12.14.27.2.45.2a.58.58 0 0 0 .46-.2.77.77 0 0 0 .18-.53.78.78 0 0 0-.1-.39 1.14 1.14 0 0 0-.25-.3l-.5-.4a7.5 7.5 0 0 1-.62-.49 1.84 1.84 0 0 1-.37-.5 1.44 1.44 0 0 1-.16-.68c0-.41.13-.74.37-.98s.56-.36.96-.36c.4 0 .73.13.98.39s.37.6.37 1.02v.2c0 .04-.03.07-.08.07h-.56c-.05 0-.08-.03-.08-.08v-.2a.84.84 0 0 0-.17-.56.57.57 0 0 0-.46-.2.56.56 0 0 0-.44.18.76.76 0 0 0-.17.52.8.8 0 0 0 .17.52c.11.14.33.33.65.56l.7.56a1.36 1.36 0 0 1 .49 1.08c-.01.43-.14.77-.39 1.03a1.3 1.3 0 0 1-.98.38c-.4 0-.72-.12-.97-.38m6.6.26-.7-2.28c0-.01-.01-.02-.03-.02h-.54c-.02 0-.03 0-.03.03v2.26c0 .05-.02.07-.07.07h-.58c-.05 0-.08-.02-.08-.07v-5.2c0-.06.03-.08.08-.08h1.37a1.24 1.24 0 0 1 1.15.73 1.99 1.99 0 0 1-.04 1.63c-.13.23-.31.4-.54.51-.02.02-.02.03-.02.05l.78 2.35.01.03c0 .03-.02.05-.07.05h-.6c-.04 0-.07-.02-.09-.06m-1.3-4.63V48c0 .02.01.03.03.03h.57a.6.6 0 0 0 .5-.24 1 1 0 0 0 .2-.64c0-.28-.07-.5-.2-.66a.61.61 0 0 0-.5-.24h-.57c-.02 0-.03.01-.03.03m5.2-.03h-1.71c-.02 0-.03.01-.03.03v1.66c0 .02 0 .03.03.03h1.05c.05 0 .08.03.08.08v.48c0 .05-.03.08-.08.08h-1.05c-.02 0-.03 0-.03.03v1.67c0 .02 0 .03.03.03h1.72c.05 0 .07.02.07.07v.49c0 .05-.02.07-.07.07h-2.41c-.05 0-.08-.02-.08-.07v-5.2c0-.06.03-.08.08-.08h2.4c.06 0 .08.02.08.07v.48c0 .06-.02.08-.07.08m.99 4.4a1.36 1.36 0 0 1-.37-.98v-.2c0-.06.02-.08.07-.08h.57c.05 0 .08.02.08.07v.17c0 .23.05.42.17.56.12.14.27.2.45.2a.58.58 0 0 0 .46-.2.77.77 0 0 0 .18-.53.78.78 0 0 0-.1-.39 1.14 1.14 0 0 0-.25-.3l-.5-.4a7.56 7.56 0 0 1-.62-.49 1.84 1.84 0 0 1-.38-.5 1.44 1.44 0 0 1-.15-.68c0-.41.12-.74.37-.98s.56-.36.95-.36c.41 0 .74.13.99.39s.37.6.37 1.02v.2c0 .04-.03.07-.08.07h-.56c-.05 0-.08-.03-.08-.08v-.2a.84.84 0 0 0-.18-.56.57.57 0 0 0-.46-.2.56.56 0 0 0-.43.18.76.76 0 0 0-.17.52c0 .2.06.38.17.52.11.14.33.33.65.56l.7.56a1.36 1.36 0 0 1 .49 1.08c-.01.43-.14.77-.39 1.03a1.3 1.3 0 0 1-.98.38c-.4 0-.72-.12-.97-.38m5.4-4.62c.24.29.36.66.36 1.12 0 .45-.11.8-.35 1.08a1.16 1.16 0 0 1-.92.42h-.72c-.02 0-.03 0-.03.03v2.22c0 .05-.03.07-.08.07h-.58c-.05 0-.08-.02-.08-.07v-5.21c0-.05.03-.08.08-.08h1.37c.39 0 .7.14.95.42m-.56 1.79c.12-.16.19-.38.19-.66s-.07-.5-.2-.67a.6.6 0 0 0-.5-.25h-.56c-.02 0-.03.01-.03.03v1.76c0 .02 0 .03.03.03h.56a.6.6 0 0 0 .5-.24m1.89 2.83c-.26-.25-.38-.6-.38-1.02v-2.67c0-.42.12-.76.38-1.02.25-.25.6-.38 1-.38.43 0 .77.12 1.03.38s.39.6.39 1.02v2.67c0 .43-.13.77-.39 1.02-.26.26-.6.38-1.02.38-.42 0-.76-.12-1.01-.38m1.5-.45a.76.76 0 0 0 .18-.54v-2.73a.76.76 0 0 0-.18-.54.63.63 0 0 0-.5-.2.6.6 0 0 0-.47.2.77.77 0 0 0-.18.54v2.73c0 .22.06.4.18.54.12.13.28.2.48.2a.63.63 0 0 0 .49-.2m3.98-4.58h.57c.05 0 .08.02.08.07v5.2c0 .06-.03.08-.08.08h-.66c-.04 0-.07-.02-.08-.06l-1.3-3.5h-.03l-.01.01v3.48c0 .05-.02.07-.07.07h-.58c-.05 0-.08-.02-.08-.07v-5.2c0-.06.03-.08.08-.08h.65c.04 0 .07.02.08.06l1.31 3.5c0 .01.02.02.03.01l.01-.02v-3.48c0-.05.03-.07.08-.07m1.77 5.04a1.35 1.35 0 0 1-.37-1v-.2c0-.05.02-.07.07-.07h.57c.05 0 .08.02.08.07v.17c0 .23.06.42.17.56.12.14.27.2.45.2a.58.58 0 0 0 .46-.2.77.77 0 0 0 .18-.53.78.78 0 0 0-.1-.39 1.14 1.14 0 0 0-.25-.3l-.5-.4a7.5 7.5 0 0 1-.62-.49 1.84 1.84 0 0 1-.38-.5 1.44 1.44 0 0 1-.15-.68c0-.41.12-.74.37-.98.24-.24.56-.36.96-.36.4 0 .73.13.98.39s.37.6.37 1.02v.2c0 .04-.03.07-.08.07h-.56c-.05 0-.08-.03-.08-.08v-.2a.83.83 0 0 0-.18-.56.57.57 0 0 0-.46-.2.56.56 0 0 0-.43.18.76.76 0 0 0-.17.52.8.8 0 0 0 .17.52c.11.14.33.33.65.56l.7.56c.15.14.27.3.35.47.09.17.13.37.13.6 0 .44-.13.78-.38 1.04-.25.25-.57.38-.98.38s-.72-.12-.97-.38m5.07.25-.17-.88a.03.03 0 0 0-.01-.02.05.05 0 0 0-.03 0h-1.25a.04.04 0 0 0-.02 0l-.01.02-.16.88c-.01.05-.04.07-.09.07h-.58c-.03 0-.04 0-.06-.02l-.01-.06 1.14-5.2c.01-.05.04-.07.08-.07h.69c.05 0 .08.02.08.07l1.15 5.2v.01c0 .05-.03.07-.07.07h-.6c-.04 0-.07-.02-.08-.07m-1.34-1.49h1.02c.01 0 .02 0 .02-.03l-.52-2.71-.02-.02-.01.02-.52 2.71c0 .02.01.03.03.03m5.04 1.18c-.27.26-.61.38-1.04.38h-1.28c-.05 0-.08-.02-.08-.07v-5.2c0-.06.03-.08.08-.08h1.17c.47 0 .83.12 1.1.36.26.24.39.6.39 1.06 0 .55-.2.93-.6 1.14-.02.01-.02.03 0 .04.2.12.36.3.48.51.11.22.17.48.17.78 0 .46-.13.82-.4 1.08m-1.65-4.3v1.61c0 .02.01.03.03.03h.49c.24 0 .43-.07.56-.21a.9.9 0 0 0 .2-.61.92.92 0 0 0-.2-.63.7.7 0 0 0-.56-.23h-.49c-.02 0-.03.01-.03.03m1.11 3.81a1 1 0 0 0 .2-.67c0-.3-.06-.53-.2-.7a.67.67 0 0 0-.54-.24h-.54c-.02 0-.03 0-.03.03v1.79c0 .02.01.03.03.03h.53a.7.7 0 0 0 .55-.24m1.63.8v-5.2c0-.05.02-.07.08-.07h.58c.05 0 .07.02.07.07v4.62c0 .02.01.03.03.03h1.72c.05 0 .07.02.07.07v.49c0 .05-.02.07-.07.07h-2.4c-.06 0-.08-.02-.08-.07m5.58-4.65h-1.72c-.02 0-.03.01-.03.03v1.66c0 .02.01.03.03.03h1.06c.05 0 .08.03.08.08v.48c0 .05-.03.08-.08.08h-1.06c-.02 0-.03 0-.03.03v1.67c0 .02.01.03.03.03h1.72c.05 0 .08.02.08.07v.49c0 .05-.03.07-.08.07h-2.4c-.06 0-.08-.02-.08-.07v-5.2c0-.06.02-.08.07-.08h2.41c.05 0 .08.02.08.07v.48c0 .06-.03.08-.08.08m1 4.4a1.35 1.35 0 0 1-.38-.98v-.2c0-.06.03-.08.08-.08h.57c.05 0 .07.02.07.07v.17c0 .23.06.42.18.56.12.14.27.2.45.2a.58.58 0 0 0 .46-.2.77.77 0 0 0 .18-.53.78.78 0 0 0-.1-.39 1.14 1.14 0 0 0-.25-.3l-.51-.4a7.5 7.5 0 0 1-.61-.49 1.84 1.84 0 0 1-.38-.5 1.44 1.44 0 0 1-.15-.68c0-.41.12-.74.37-.98s.56-.36.95-.36c.41 0 .74.13.98.39.25.26.38.6.38 1.02v.2c0 .04-.03.07-.08.07h-.57c-.05 0-.07-.03-.07-.08v-.2a.83.83 0 0 0-.18-.56.57.57 0 0 0-.46-.2.56.56 0 0 0-.43.18.76.76 0 0 0-.17.52.8.8 0 0 0 .17.52c.1.14.33.33.65.56.3.23.53.42.69.56.15.14.27.3.36.47.08.17.12.37.12.6 0 .44-.12.78-.37 1.04-.25.25-.58.38-.98.38s-.73-.12-.98-.38" fill="#d6084f"/>
    <path d="M102.11 23.06h3.25c-.16-.94-.65-1.47-1.59-1.47-.97 0-1.47.58-1.66 1.47m5.43 1.58h-5.48c.13 1.07.67 1.72 1.78 1.72.8 0 1.31-.27 1.88-1.11l1.66.82a3.69 3.69 0 0 1-3.49 2.1c-2.83 0-4.17-1.79-4.17-4.2 0-2.39 1.5-4.21 4.1-4.21 2.34 0 3.78 1.64 3.78 4.2 0 .23-.02.45-.05.7m-12.54.53v-9.3h2.36v9.3c0 .67.34.99.84.99.31 0 .54-.08.73-.29l1.13 1.68c-.45.4-1.06.6-1.84.6-2.2 0-3.22-1.2-3.22-2.99m-5.45 1.26c.68 0 1.21-.34 1.65-.72v-.83l-.65-.13c-1.56-.3-1.99.26-1.99.8s.4.88 1 .88m3.94-3.57V28h-1.99l-.11-.79c-.8.61-1.7.95-2.67.95-1.54 0-2.62-.95-2.62-2.47 0-1.5 1.34-2.73 3.94-2.33l1.15.18v-.7c0-.93-.8-1.3-1.6-1.3-.71 0-1.4.27-1.99.97l-1.4-1.35c.89-.96 1.92-1.4 3.62-1.4 2.11 0 3.67.95 3.67 3.1m-7.6 4.7c-.45.4-1.06.6-1.84.6-2.2 0-3.21-1.2-3.21-2.99v-3.49h-.97v-1.76h.97v-2.74h2.36v2.75h2.02v1.76H83.2v3.5c0 .67.34 1 .84 1 .31 0 .54-.08.73-.3l1.13 1.69zM76.5 28h2.37v-8.08H76.5v8.09zm4.09-16.54c-.8 0-1.48-.52-1.75-1.3V8.48c.28-.77.96-1.3 1.75-1.3 1.13 0 1.89.95 1.89 2.15s-.76 2.13-1.9 2.13m.47-6.34c-.9 0-1.64.32-2.2.87v-.7H76.5v10.73a1.87 1.87 0 0 1 2.33-.03v-3.34a3.1 3.1 0 0 0 2.22.88c2.2 0 3.75-1.85 3.75-4.2 0-2.36-1.56-4.2-3.76-4.2m-2.03 12.76c0-.72-.61-1.32-1.34-1.32-.71 0-1.32.6-1.32 1.32 0 .72.6 1.33 1.32 1.33.73 0 1.34-.61 1.34-1.33m-6.64 6.93v-1.71c-.3-.76-.95-1.3-1.73-1.3-1.15 0-1.9.96-1.9 2.16 0 1.2.75 2.13 1.9 2.13.78 0 1.44-.51 1.73-1.28m2.34-4.9v8.05c0 2.46-1.67 4.08-4.15 4.08-.9 0-1.67-.18-2.35-.49v-2.24c.65.48 1.4.79 2.36.79.98 0 1.8-.68 1.8-2.14v-.67c-.57.55-1.3.87-2.2.87-2.21 0-3.75-1.84-3.75-4.2s1.54-4.2 3.75-4.2c.96 0 1.75.37 2.33 1l.11-.84h2.1zM62.9 28.01h2.36v-8.09H62.9v8.09zm1.18-8.8c.72 0 1.34-.59 1.34-1.32 0-.73-.62-1.33-1.34-1.33-.72 0-1.33.6-1.33 1.33a1.34 1.34 0 0 0 1.32 1.33m-4.94 5.6v-1.71c-.3-.76-.96-1.3-1.73-1.3-1.15 0-1.9.96-1.9 2.16 0 1.2.75 2.13 1.9 2.13.77 0 1.44-.52 1.73-1.28m2.32-8.93V28l-2.08.01-.13-.84a3.12 3.12 0 0 1-2.31.99c-2.22 0-3.75-1.85-3.75-4.2 0-2.37 1.53-4.2 3.75-4.2.89 0 1.63.31 2.2.86v-4.75h2.32zm60.57-7.47h3.25c-.16-.94-.65-1.47-1.58-1.47-.97 0-1.47.58-1.67 1.47m5.43 1.59h-5.48c.13 1.06.67 1.7 1.78 1.7.8 0 1.31-.27 1.88-1.11l1.66.82a3.69 3.69 0 0 1-3.49 2.1c-2.83 0-4.17-1.8-4.17-4.2 0-2.4 1.5-4.22 4.09-4.22 2.34 0 3.78 1.65 3.78 4.2 0 .22-.02.45-.05.7m-7.67 2.92c-.46.39-1.07.6-1.85.6-2.2 0-3.21-1.2-3.21-3V7.05h-.98V5.27h.97V2.53h2.36v2.74h2.02v1.77h-2.02v3.5c0 .67.34 1 .84 1a.9.9 0 0 0 .72-.3l1.14 1.68zm-6.75-4.67v5.12h-2.36V8.55c0-.83-.62-1.38-1.5-1.38-.93 0-1.65.67-1.65 1.5v4.7h-2.37V5.28h2.12l.13.94a3.27 3.27 0 0 1 2.45-1.1c1.9 0 3.17 1.23 3.17 3.14m-11.88 5.1h2.36V5.29h-2.36v8.09zm1.2-8.78c.72 0 1.34-.6 1.34-1.33 0-.73-.62-1.33-1.34-1.33-.72 0-1.33.6-1.33 1.33a1.34 1.34 0 0 0 1.33 1.32m-7.85 3.85h3.25c-.16-.94-.65-1.47-1.59-1.47-.97 0-1.47.58-1.66 1.47M99.92 10h-5.48c.13 1.07.66 1.72 1.78 1.72.8 0 1.31-.28 1.87-1.12l1.67.82a3.7 3.7 0 0 1-3.5 2.1c-2.82 0-4.16-1.79-4.16-4.2 0-2.39 1.5-4.21 4.09-4.21 2.34 0 3.78 1.65 3.78 4.2 0 .22-.02.45-.05.7m-7.5-4.19-.98 1.73a2 2 0 0 0-1.26-.38c-.97 0-1.9.81-1.9 2.15v4.04h-2.36V5.28h2.12l.13 1.24c.55-.86 1.37-1.4 2.31-1.4s1.47.22 1.96.69m-17.5 2.4v5.16H72.6V8.52c0-.8-.54-1.35-1.35-1.35-.84 0-1.48.67-1.48 1.5v4.7H67.4V8.52c0-.8-.54-1.34-1.33-1.34a1.49 1.49 0 0 0-1.5 1.5v4.69H62.2V5.28h2.11l.12.86a3.02 3.02 0 0 1 2.29-1.02c1.12 0 2 .47 2.52 1.26a3.38 3.38 0 0 1 2.67-1.26c1.83 0 3.02 1.23 3.02 3.1m-19.36.2h3.24c-.16-.94-.64-1.47-1.58-1.47-.97 0-1.47.58-1.66 1.47M61 10h-5.48c.12 1.07.66 1.72 1.78 1.72.79 0 1.3-.28 1.87-1.12l1.66.82a3.7 3.7 0 0 1-3.49 2.1c-2.83 0-4.17-1.8-4.17-4.2 0-2.4 1.5-4.22 4.09-4.22 2.35 0 3.79 1.65 3.79 4.2 0 .22-.02.45-.05.7" fill="#367591"/>
</svg>
